HIERARCHY
ROOT hip
{
  OFFSET 0 0 0
  CHANNELS 6 Xposition Yposition Zposition Zrotation Yrotation Xrotation
  JOINT abdomen
  {
    OFFSET 0 20.6881 -0.73152
    CHANNELS 3 Zrotation Xrotation Yrotation
    JOINT chest
    {
      OFFSET 0 11.7043 -0.48768
      CHANNELS 3 Zrotation Xrotation Yrotation
      JOINT neck
      {
        OFFSET 0 22.1894 -2.19456
        CHANNELS 3 Zrotation Xrotation Yrotation
        JOINT head
        {
          OFFSET -0.24384 7.07133 1.2192
          CHANNELS 3 Zrotation Xrotation Yrotation
          JOINT leftEye
          {
            OFFSET 4.14528 8.04674 8.04672
            CHANNELS 3 Zrotation Xrotation Yrotation
            End Site
            {
              OFFSET 1 0 0
            }
          }
          JOINT rightEye
          {
            OFFSET -3.6576 8.04674 8.04672
            CHANNELS 3 Zrotation Xrotation Yrotation
            End Site
            {
              OFFSET 1 0 0
            }
          }
        }
      }
      JOINT rCollar
      {
        OFFSET -2.68224 19.2634 -4.8768
        CHANNELS 3 Zrotation Xrotation Yrotation
        JOINT rShldr
        {
          OFFSET -8.77824 -1.95073 1.46304
          CHANNELS 3 Zrotation Xrotation Yrotation
          JOINT rForeArm
          {
            OFFSET -28.1742 -1.7115 0.48768
            CHANNELS 3 Zrotation Xrotation Yrotation
            JOINT rHand
            {
              OFFSET -22.5879 0.773209 7.07136
              CHANNELS 3 Zrotation Xrotation Yrotation
              JOINT rThumb1
              {
                OFFSET -1.2192 -0.487915 3.41376
                CHANNELS 3 Zrotation Xrotation Yrotation
                JOINT rThumb2
                {
                  OFFSET -3.37035 -0.52449 3.41376
                  CHANNELS 3 Zrotation Xrotation Yrotation
                  End Site
                  {
                    OFFSET -1.78271 -1.18214 1.43049
                  }
                }
              }
              JOINT rIndex1
              {
                OFFSET -7.75947 0.938293 5.60832
                CHANNELS 3 Zrotation Xrotation Yrotation
                JOINT rIndex2
                {
                  OFFSET -2.54057 -0.884171 1.56538
                  CHANNELS 3 Zrotation Xrotation Yrotation
                  End Site
                  {
                    OFFSET -1.62519 -0.234802 1.16502
                  }
                }
              }
              JOINT rMid1
              {
                OFFSET -8.24714 1.18213 3.41376
                CHANNELS 3 Zrotation Xrotation Yrotation
                JOINT rMid2
                {
                  OFFSET -3.10165 -0.590103 1.0647
                  CHANNELS 3 Zrotation Xrotation Yrotation
                  End Site
                  {
                    OFFSET -2.48547 -0.328903 0.83742
                  }
                }
              }
              JOINT rRing1
              {
                OFFSET -8.82822 0.546677 1.51678
                CHANNELS 3 Zrotation Xrotation Yrotation
                JOINT rRing2
                {
                  OFFSET -2.60934 -0.819778 -0.0198488
                  CHANNELS 3 Zrotation Xrotation Yrotation
                  End Site
                  {
                    OFFSET -2.33842 -0.294052 0.168128
                  }
                }
              }
              JOINT rPinky1
              {
                OFFSET -8.27202 -0.0477905 -0.4584
                CHANNELS 3 Zrotation Xrotation Yrotation
                JOINT rPinky2
                {
                  OFFSET -1.82734 -0.647385 -0.700984
                  CHANNELS 3 Zrotation Xrotation Yrotation
                  End Site
                  {
                    OFFSET -1.69225 -0.51767 -0.607171
                  }
                }
              }
            }
          }
        }
      }
      JOINT lCollar
      {
        OFFSET 2.68224 19.2634 -4.8768
        CHANNELS 3 Zrotation Xrotation Yrotation
        JOINT lShldr
        {
          OFFSET 8.77824 -1.95073 1.46304
          CHANNELS 3 Zrotation Xrotation Yrotation
          JOINT lForeArm
          {
            OFFSET 28.1742 -1.7115 0.48768
            CHANNELS 3 Zrotation Xrotation Yrotation
            JOINT lHand
            {
              OFFSET 22.5879 0.773209 7.07136
              CHANNELS 3 Zrotation Xrotation Yrotation
              JOINT lThumb1
              {
                OFFSET 1.2192 -0.487915 3.41376
                CHANNELS 3 Zrotation Xrotation Yrotation
                JOINT lThumb2
                {
                  OFFSET 3.37035 -0.52449 3.41376
                  CHANNELS 3 Zrotation Xrotation Yrotation
                  End Site
                  {
                    OFFSET 1.78271 -1.18214 1.43049
                  }
                }
              }
              JOINT lIndex1
              {
                OFFSET 7.75947 0.938293 5.60832
                CHANNELS 3 Zrotation Xrotation Yrotation
                JOINT lIndex2
                {
                  OFFSET 2.54057 -0.884171 1.56538
                  CHANNELS 3 Zrotation Xrotation Yrotation
                  End Site
                  {
                    OFFSET 1.62519 -0.234802 1.16502
                  }
                }
              }
              JOINT lMid1
              {
                OFFSET 8.24714 1.18213 3.41376
                CHANNELS 3 Zrotation Xrotation Yrotation
                JOINT lMid2
                {
                  OFFSET 3.10165 -0.590103 1.0647
                  CHANNELS 3 Zrotation Xrotation Yrotation
                  End Site
                  {
                    OFFSET 2.48547 -0.328903 0.83742
                  }
                }
              }
              JOINT lRing1
              {
                OFFSET 8.82822 0.546677 1.51678
                CHANNELS 3 Zrotation Xrotation Yrotation
                JOINT lRing2
                {
                  OFFSET 2.60934 -0.819778 -0.0198488
                  CHANNELS 3 Zrotation Xrotation Yrotation
                  End Site
                  {
                    OFFSET 2.33842 -0.294052 0.168128
                  }
                }
              }
              JOINT lPinky1
              {
                OFFSET 8.27202 -0.0477905 -0.4584
                CHANNELS 3 Zrotation Xrotation Yrotation
                JOINT lPinky2
                {
                  OFFSET 1.82734 -0.647385 -0.700984
                  CHANNELS 3 Zrotation Xrotation Yrotation
                  End Site
                  {
                    OFFSET 1.69225 -0.51767 -0.607171
                  }
                }
              }
            }
          }
        }
      }
    }
  }
  JOINT rButtock
  {
    OFFSET -8.77824 4.35084 1.2192
    CHANNELS 3 Zrotation Xrotation Yrotation
    JOINT rThigh
    {
      OFFSET 0 -1.70687 -2.19456
      CHANNELS 3 Zrotation Xrotation Yrotation
      JOINT rShin
      {
        OFFSET 0 -36.8199 0.73152
        CHANNELS 3 Zrotation Xrotation Yrotation
        JOINT rFoot
        {
          OFFSET 0.73152 -45.1104 -5.12064
          CHANNELS 3 Zrotation Xrotation Yrotation
          End Site
          {
            OFFSET -1.1221 -3.69964 12.103
          }
        }
      }
    }
  }
  JOINT lButtock
  {
    OFFSET 8.77824 4.35084 1.2192
    CHANNELS 3 Zrotation Xrotation Yrotation
    JOINT lThigh
    {
      OFFSET 0 -1.70687 -2.19456
      CHANNELS 3 Zrotation Xrotation Yrotation
      JOINT lShin
      {
        OFFSET 0 -36.8199 0.73152
        CHANNELS 3 Zrotation Xrotation Yrotation
        JOINT lFoot
        {
          OFFSET -0.73152 -45.1104 -5.12064
          CHANNELS 3 Zrotation Xrotation Yrotation
          End Site
          {
            OFFSET 1.1221 -3.69964 12.103
          }
        }
      }
    }
  }
}
MOTION
Frames: 12
Frame Time:	0.008333333333333333
42.9698 81.2549 -175.171 2.7596 3.3774 6.5382 -3.5269 -7.8145 0.5624 4.1378 -0.3309 -3.0008 -6.529 -1.9597 -3.9558 13.3433 -2.3285 5.5291 -0.001 -0.0012 -0.0098 0.0045 -0.0018 0.0078 0.0142 0.0009 0.004 83.3634 26.4161 -11.3626 -11.2212 0.9638 7.2577 -0.5656 8.0049 3.2823 0.0016 0.005 0.0039 0.008 0.0051 -0.0053 0.0061 0.0064 -0.0007 7.7267 5.4769 0.4201 -0.0118 -0.0007 -0.002 2.9072 0.9646 0.1107 -0.0017 0.0006 0.0061 10.2801 0.7314 0.0206 0.003 0.0051 0.0066 2.2203 -0.7335 -0.2089 -0.0032 -0.0009 -0.0019 -63.7229 45.5394 -40.9678 15.7803 -9.7334 -40.7605 -1.0775 -16.8231 4.8288 0.0018 -0.0001 -0.0023 0.0021 0.003 0.0009 -0.0045 0.0006 0.0073 -7.7327 5.4709 -0.4194 -0.0019 0.0037 0.0015 -2.9036 0.9641 -0.0954 0.0013 -0.0042 0.0003 -10.2856 0.7369 -0.0271 0.0023 -0.0054 -0.0043 -2.2227 -0.7334 0.2125 0.0027 0.0012 0.003 -9.7549 -32.0431 4.9199 10.5007 29.995 -18.0206 -4.3597 -4.0382 -5.5516 0.0034 -0.0008 -0.0021 -5.8357 16.1957 11.3536 -20.8591 8.8005 1.1476 -0.837 0.5058 -3.0346 
42.7647 81.2199 -173.714 4.8898 3.1221 5.9752 -2.4539 -2.2158 -12.1006 6.3452 4.7856 -1.3344 -14.52 -8.049 2.2115 7.5022 -3.6785 9.9108 0.0065 0.0061 0.0027 -0.0056 -0.0019 -0.0015 0.0032 0.0004 0.0028 75.1355 28.6018 -19.6278 -8.7016 -5.33 -10.8027 -0.3977 27.5371 2.6791 -0.0046 -0.0036 -0.0028 0.0085 -0.0058 -0.0032 0.0004 -0.0059 0.0006 7.7227 5.4802 0.4142 -0.0079 0.0048 -0.0023 2.8995 0.9719 0.1108 -0.0008 -0.0004 -0.003 10.2733 0.7368 0.0256 0.0026 -0.011 0.0037 2.2296 -0.7337 -0.2154 -0.0073 -0.0032 0.0108 -52.7071 40.3384 -34.9961 16.6569 -9.4122 -54.7686 -0.3584 -16.7869 2.9509 -0.0003 -0.008 0.0019 -0.0063 -0.0102 -0.0 0.0 0.0046 0.0038 -7.7292 5.4774 -0.4213 -0.0063 -0.005 0.0017 -2.9015 0.9674 -0.1099 -0.0029 0.0025 0.0018 -10.2765 0.7356 -0.0246 -0.0055 -0.0067 0.0031 -2.2176 -0.7403 0.2018 -0.0027 -0.0048 -0.0061 -9.4176 -66.5944 -4.1354 -5.5444 23.5427 -16.7388 -7.4047 -19.8583 -0.7271 -0.0045 0.0017 -0.0035 -6.617 6.1546 21.8871 14.1368 17.6809 -6.8771 0.0939 -7.7923 -0.6172 
42.4858 81.0785 -172.233 4.9448 3.4595 1.0698 -2.2329 -10.2887 -6.7367 5.3331 3.2863 -3.4455 -13.3792 -10.5467 -2.3199 11.2694 -0.9501 1.1552 -0.0003 -0.0017 -0.0001 -0.0038 0.0068 0.0025 0.0057 -0.0002 -0.0053 66.5038 10.2862 -17.2039 -2.941 -12.7387 14.9247 -0.1518 5.1571 0.6035 0.0067 0.002 -0.0053 -0.0042 0.0057 0.0007 0.0018 -0.0032 0.0041 7.7374 5.4745 0.4152 0.0067 -0.0015 -0.0058 2.8865 0.9633 0.1051 -0.0009 -0.0023 -0.01 10.2803 0.728 0.0348 0.0018 0.0045 -0.0028 2.2173 -0.7433 -0.2117 0.0106 0.0072 0.0061 -42.3001 39.2173 -49.0206 18.9586 -24.0216 -25.0257 -1.0359 -24.2988 0.3154 0.0022 -0.0039 0.0022 0.0011 0.0063 0.0052 0.0087 0.0004 -0.0039 -7.7229 5.4686 -0.4171 -0.0013 -0.0035 -0.0003 -2.9038 0.9644 -0.1047 0.0019 -0.0034 -0.0121 -10.2767 0.7328 -0.0212 0.0038 -0.0066 0.0065 -2.2122 -0.7393 0.2107 -0.0047 0.003 0.005 -6.7748 -41.3909 -5.5867 -11.7766 31.6406 11.9116 -0.8149 12.8443 1.1129 0.0025 -0.0006 -0.007 0.5803 3.8031 4.4428 11.1305 9.0397 7.5805 -0.5837 -11.3319 -2.4906 
42.2411 81.0052 -170.71 2.7563 3.0911 5.7657 -2.2329 -7.8752 -5.7587 4.2138 4.3785 -2.2294 -12.5346 -12.598 1.1814 13.1407 4.0912 3.5322 -0.0055 -0.0045 0.0043 0.007 -0.0092 0.0027 -0.0047 -0.0037 0.0013 67.9165 15.1574 -24.6634 -5.6059 -8.6604 -1.8389 -0.5023 14.7889 2.4341 -0.0021 0.0055 0.0002 0.0054 -0.0044 -0.008 -0.0009 -0.0011 -0.0051 7.7359 5.485 0.4105 0.0041 -0.0082 -0.0058 2.9072 0.9643 0.0982 0.0037 -0.0024 0.0045 10.2819 0.7283 0.0282 -0.0052 -0.0008 -0.0034 2.2231 -0.7354 -0.2116 0.0019 0.0026 -0.0029 -58.3894 38.2174 -15.4842 14.5861 -12.9325 -16.2773 0.1366 -7.7936 1.6489 0.0004 -0.002 0.0003 0.0013 0.0042 -0.0003 -0.0065 -0.0002 0.0007 -7.7335 5.4886 -0.418 0.0064 0.0059 -0.0019 -2.9015 0.9676 -0.1066 0.0067 -0.0097 -0.0032 -10.2775 0.7287 -0.0246 -0.002 0.0009 0.0012 -2.2279 -0.7367 0.2052 -0.0001 0.001 0.0102 11.351 -62.5272 -0.22 -18.3695 49.3831 13.5597 -2.0836 3.4886 0.296 -0.0044 0.0022 -0.0078 5.9865 16.6821 3.6238 -2.7568 19.2152 -3.1247 -1.7596 11.0458 7.6428 
42.0501 80.7609 -169.198 1.8391 3.1116 5.4417 -2.262 -7.6318 -7.8367 4.303 1.702 -2.3827 -7.9083 -8.8728 1.7044 15.0311 0.1713 8.6125 -0.0027 0.0014 0.005 0.0005 -0.0056 0.0 0.0033 -0.0052 -0.0024 72.8194 3.4959 -29.3941 -9.2469 -10.7772 14.8598 -0.915 19.187 4.24 -0.0081 0.0016 -0.0011 0.0056 -0.004 -0.0041 0.0024 0.003 0.0066 7.7326 5.4745 0.4062 -0.0008 -0.0042 0.0033 2.9017 0.9605 0.1074 -0.0009 -0.0047 -0.0033 10.2811 0.7234 0.0292 0.0008 0.0021 -0.0052 2.2215 -0.7369 -0.2026 0.0003 -0.0035 -0.002 -47.3266 44.767 -44.2525 26.8843 -21.1801 -53.1018 -0.0877 -5.8114 1.8752 -0.0008 0.006 -0.0034 -0.0049 0.0049 0.0066 0.0026 -0.0008 0.0003 -7.7288 5.475 -0.4101 0.0034 -0.0009 -0.0041 -2.8999 0.962 -0.1074 0.0096 0.0036 -0.002 -10.2831 0.7264 -0.0282 -0.0032 -0.0026 0.0112 -2.2294 -0.7368 0.2098 0.0049 -0.004 0.0046 -18.2747 -25.3801 7.7968 -10.1156 33.9009 -30.3717 4.7404 8.1052 -2.7708 0.0116 0.001 -0.0019 2.2858 8.5387 2.9151 -4.5299 -9.838 5.1428 -0.0375 -3.7064 -1.4095 
41.7741 80.6424 -167.865 5.0479 2.6495 6.2287 -2.2911 -10.5233 -6.4448 3.8576 1.9982 -0.9852 -10.0217 -4.4576 -0.2317 12.5217 1.6259 3.1711 0.0106 -0.0044 0.0007 -0.0065 0.0008 0.0026 0.0064 0.0011 0.0065 81.8701 8.121 -4.6942 -0.5171 -1.801 12.6669 -0.801 12.058 3.1523 -0.0031 0.0021 0.0085 0.0065 0.0015 -0.0127 0.0064 0.0044 -0.004 7.7325 5.4739 0.4142 -0.0068 -0.0082 -0.0013 2.9013 0.9605 0.1005 -0.0008 0.0042 -0.0048 10.2674 0.7342 0.0252 0.0009 0.0046 0.0029 2.2163 -0.7375 -0.2105 -0.0029 -0.0106 -0.0067 -53.788 42.5936 -28.8855 21.9056 -14.7905 -52.6983 -0.9819 -14.838 0.8482 0.004 0.0068 0.0026 -0.0023 -0.0012 -0.0028 0.0014 0.004 -0.0015 -7.7268 5.4775 -0.4159 -0.0055 -0.0017 0.0042 -2.907 0.9656 -0.1003 0.0042 -0.0026 0.0083 -10.2771 0.7351 -0.0228 -0.0006 -0.0067 -0.0079 -2.2225 -0.7318 0.2098 0.0026 -0.0018 0.0004 8.2037 -41.3373 -0.9224 -6.3438 26.6556 -22.7383 4.9939 0.2877 -4.1994 -0.0037 -0.0033 -0.0118 -12.1481 14.9573 15.5948 -19.0178 13.0709 3.7622 2.3448 -7.7948 -5.8216 
41.5323 80.5318 -166.567 1.9908 3.0062 4.2006 -2.3202 -9.0855 -9.1285 4.1269 4.1574 -3.2847 -12.5238 -8.219 3.5489 14.7463 2.8011 8.9414 -0.0057 -0.0065 -0.0019 -0.0032 -0.0016 -0.0021 0.003 0.0026 0.0004 80.7354 -2.0217 -24.8253 -6.0511 -7.5259 12.2561 -0.899 35.8405 3.4438 -0.0013 0.0084 -0.0073 0.0012 0.0016 -0.0058 -0.0009 -0.001 -0.0009 7.7391 5.4733 0.4171 0.0053 -0.0061 -0.0011 2.9006 0.966 0.0988 0.0022 0.0055 0.0016 10.2832 0.7366 0.0304 0.0044 -0.0005 0.0048 2.2266 -0.744 -0.2094 -0.0008 0.0002 -0.0028 -59.2974 46.3596 2.0001 12.6367 -7.7165 -27.3464 -0.6175 -3.1817 0.6066 0.0023 0.0009 -0.0042 0.0029 0.0106 0.0091 -0.0013 0.0068 -0.0007 -7.7368 5.4828 -0.4207 -0.0062 0.0031 -0.0071 -2.9071 0.9657 -0.1066 0.0 -0.0063 0.0041 -10.2801 0.7287 -0.029 -0.0042 -0.0053 0.0108 -2.2181 -0.7396 0.2104 -0.0039 0.0009 0.0011 -10.4065 -59.7408 -1.3027 16.7091 20.8432 -23.0486 0.4207 1.3476 -2.22 0.0041 -0.0033 -0.0047 14.2711 8.4738 10.1808 -6.1735 1.43 -23.8733 -0.2399 8.5488 -1.763 
41.3622 80.4663 -165.339 -2.6906 3.2391 0.8613 -2.3492 -8.2065 -7.676 4.639 4.6833 -2.498 -11.4081 -4.7644 0.574 10.8198 -7.946 6.1472 0.0045 0.0012 0.0015 0.0014 0.0054 0.0004 -0.0 -0.0032 -0.0041 62.094 0.0055 -29.1494 -5.4808 -8.2527 2.9523 -1.0446 29.1669 5.5568 -0.0052 -0.0028 -0.0064 -0.0034 -0.0101 -0.0018 -0.0016 -0.0033 -0.0096 7.7413 5.4756 0.4128 -0.0028 -0.0055 -0.0025 2.9001 0.9699 0.1035 -0.0008 0.0011 0.0023 10.2722 0.7313 0.0235 0.0014 0.0028 0.001 2.2123 -0.732 -0.2058 -0.0033 -0.0029 -0.0004 -38.4569 22.2802 -12.5665 16.1606 -19.9266 -48.5598 -0.3937 2.925 3.5238 0.0027 -0.0009 -0.0059 0.003 0.0026 0.0005 -0.0011 0.0033 0.0048 -7.7255 5.4659 -0.4174 0.0026 0.0045 0.0019 -2.8977 0.9677 -0.0959 0.0014 0.0039 -0.0008 -10.2654 0.7381 -0.022 0.0038 0.0003 0.0079 -2.2308 -0.7227 0.2083 0.0079 -0.0033 0.0004 -4.3455 -46.7511 -1.8136 -14.4455 35.8459 16.9585 4.4912 9.2401 1.9461 0.0051 -0.0026 0.0 -1.2393 17.4682 15.5786 25.3227 30.438 22.2625 1.9739 12.4356 1.5399 
41.113 80.2826 -164.172 -1.1961 3.0503 -2.8566 -2.3783 -10.7107 -11.4607 5.7884 1.7274 -4.0387 -13.0499 -3.8413 -1.1663 14.5756 13.5236 1.5499 0.0033 0.0023 -0.0 0.004 0.0066 -0.0034 0.0034 -0.0116 -0.0024 75.016 -10.8747 -30.4553 -5.9284 3.0714 26.2402 -1.2867 21.1042 3.9439 0.0052 0.0046 0.005 0.0015 -0.0022 -0.0035 -0.0013 0.0021 0.0025 7.7265 5.4735 0.4269 0.0054 -0.0149 -0.0013 2.8995 0.9708 0.1053 0.0064 -0.0024 0.0014 10.2832 0.7355 0.0214 0.0047 0.0014 0.0018 2.2349 -0.7284 -0.2006 0.0102 0.0083 0.0041 -73.7546 46.2974 -26.1642 15.3151 -16.4697 -35.7637 -0.9613 1.5984 1.7501 -0.0047 0.004 0.0025 -0.0021 -0.0015 -0.0063 0.0078 -0.0003 0.0127 -7.7326 5.4784 -0.4151 -0.0115 -0.0022 -0.0093 -2.9055 0.9639 -0.1116 -0.0093 -0.0042 0.0071 -10.2821 0.7303 -0.027 -0.0003 0.0075 0.004 -2.2139 -0.7345 0.2048 -0.0055 0.0016 0.0028 2.0852 -42.1879 -0.3652 13.318 33.4206 -17.6179 -6.6557 -3.4552 4.061 0.0041 -0.0065 0.0034 -0.8304 6.1786 8.8079 -1.0504 35.6906 -8.8986 0.7682 5.8542 6.3442 
40.8227 80.253 -163.036 -3.3142 3.2977 2.0072 -2.4074 -4.7209 -8.0702 9.0109 2.7709 -4.3538 -15.6436 -9.016 -1.175 16.3685 8.5978 9.5748 0.0051 -0.0054 0.0076 0.0094 -0.0029 -0.0017 -0.0122 0.0026 0.0039 60.1244 -6.6871 -13.1659 -5.7019 1.9007 2.2987 -0.7426 27.9266 3.7946 -0.0004 0.0012 -0.0014 -0.0055 0.001 0.0003 -0.0091 0.0043 -0.0 7.7264 5.4624 0.4063 0.0007 0.0025 -0.0068 2.9029 0.9597 0.1078 -0.0002 0.0036 0.0031 10.2739 0.7349 0.022 -0.0003 0.0012 -0.007 2.2153 -0.7329 -0.2071 -0.0009 0.0012 -0.0012 -60.9078 42.8266 -13.1383 28.2062 -15.5568 -34.0454 -1.3512 -4.1204 -0.8157 -0.0034 -0.0015 0.0029 0.0062 -0.0039 -0.0031 -0.0064 -0.0016 -0.0073 -7.7312 5.4787 -0.42 -0.0062 0.0101 -0.0008 -2.8966 0.9587 -0.0959 0.0004 -0.0012 0.0005 -10.2914 0.734 -0.0307 0.0032 0.003 -0.0049 -2.222 -0.7358 0.21 0.0003 0.0006 -0.0038 12.8497 -51.6289 -5.7085 12.331 47.501 -13.2301 4.2928 5.3128 5.1645 -0.0012 -0.0032 -0.0004 -13.0234 14.5852 14.4164 -21.4256 41.8713 9.3569 3.0887 16.7746 -0.1067 
40.5531 80.2858 -161.928 -2.229 3.6495 7.7597 -2.4365 -8.1626 -13.4239 6.9826 1.4097 -2.56 -8.6612 -9.575 -4.0048 15.3723 3.6413 2.166 0.0025 -0.0147 0.0058 0.0052 0.0037 -0.0068 0.0018 -0.0087 -0.013 56.2712 1.3985 -19.5733 -3.8958 7.4163 0.2752 -1.299 30.7506 3.2749 0.0043 -0.0017 -0.0023 0.0039 -0.0003 -0.0044 -0.001 0.0052 0.0066 7.7291 5.4712 0.4124 -0.0103 0.0035 0.0014 2.9035 0.9604 0.0955 0.0054 0.0087 -0.0006 10.2798 0.7373 0.0255 -0.0042 0.0026 0.0063 2.2163 -0.7382 -0.2082 0.0004 0.0018 0.0067 -52.9902 43.4285 -10.3819 15.5077 -11.5647 -31.6055 -0.379 -12.1511 2.4616 0.0013 0.0074 -0.0027 0.0052 -0.0006 -0.0027 -0.0026 0.005 0.0008 -7.7309 5.478 -0.4166 0.002 0.0064 0.0007 -2.9008 0.9619 -0.11 0.0028 0.001 0.0064 -10.2777 0.7309 -0.029 -0.0025 -0.0003 0.0025 -2.2276 -0.7308 0.2118 -0.0075 -0.0006 0.0083 7.9797 -44.0017 16.6846 10.3781 54.6082 -10.3171 -1.7687 -12.1246 0.9087 -0.012 0.0002 -0.0034 15.6571 1.138 3.9225 -7.8462 42.051 -15.1183 1.6738 5.1196 2.0795 
40.2692 80.3712 -160.846 -0.3 3.4269 1.1691 -2.4655 -1.64 -12.1789 6.3362 4.3703 -3.4049 -14.0527 -6.2748 -0.7188 9.8332 0.9158 6.3639 -0.0015 -0.0012 -0.0012 -0.0037 0.0004 0.0007 0.001 0.0006 0.0068 78.285 0.2555 -7.1435 -11.7979 -3.8773 15.3414 -1.0196 15.7226 3.8956 -0.0067 -0.0061 0.0118 0.009 -0.0099 0.0022 0.0024 0.0048 -0.0049 7.7287 5.4674 0.4189 0.0074 -0.0055 0.0015 2.9067 0.963 0.1026 -0.0061 0.004 0.0008 10.2824 0.7236 0.0199 0.0027 0.0053 -0.0112 2.2184 -0.7359 -0.207 0.0015 0.0003 0.006 -54.2952 42.4712 -9.8619 14.1677 -4.3249 -57.335 -0.4861 -22.5692 -0.0805 0.0034 0.0047 -0.0024 -0.0049 -0.0028 -0.0045 -0.0005 -0.0045 -0.0049 -7.741 5.4773 -0.4141 -0.0005 0.0046 0.0004 -2.9107 0.9642 -0.1033 0.0001 0.0004 0.0036 -10.2834 0.7319 -0.0226 -0.0039 -0.0029 0.0039 -2.2198 -0.7255 0.208 0.0042 0.0098 0.007 -7.6793 -35.2732 2.0092 -9.9916 40.651 13.1611 -9.3355 -0.7852 5.4151 0.0006 -0.0028 -0.007 24.711 15.6225 5.1287 -0.8731 29.1019 4.8941 0.2779 9.7982 4.0508 
